<svg width="1231" height="409" viewBox="0 0 1231 409" fill="none" xmlns="http://www.w3.org/2000/svg">
<path fill-rule="evenodd" clip-rule="evenodd" d="M295.493 322.987C360.932 322.987 413.987 269.932 413.987 204.493C413.987 139.056 360.932 86 295.493 86C230.056 86 177 139.056 177 204.493C177 269.932 230.056 322.987 295.493 322.987ZM384.364 234.117C384.364 283.195 344.572 322.987 295.493 322.987C246.415 322.987 206.623 283.195 206.623 234.117C206.623 185.039 246.415 145.247 295.493 145.247C344.572 145.247 384.364 185.039 384.364 234.117ZM236.247 263.74C236.247 231.022 262.774 204.493 295.493 204.493C328.212 204.493 354.74 231.022 354.74 263.74C354.74 294.419 331.337 319.357 301.467 322.38C314.962 319.617 325.117 307.684 325.117 293.364C325.117 277.005 311.853 263.74 295.493 263.74C279.134 263.74 265.87 277.005 265.87 293.364C265.87 307.684 276.024 319.617 289.52 322.38C259.65 319.357 236.247 294.419 236.247 263.74ZM515.734 210.48V182.808H491.247V179.423C491.247 176.437 491.645 173.451 492.64 170.863C494.432 164.89 499.409 161.108 504.983 159.117C508.368 158.122 512.349 157.524 517.326 157.524C518.178 157.524 519.176 157.67 520.32 157.837C520.513 157.866 520.709 157.894 520.91 157.923C522.303 158.122 523.498 158.321 524.493 158.52V129.653C523.797 129.554 523.051 129.404 522.304 129.255C521.557 129.106 520.811 128.956 520.113 128.857C518.72 128.658 517.326 128.658 516.331 128.658C485.672 128.658 461.384 146.575 461.384 179.622V278.964H491.247V210.48H515.734ZM567.296 278.964V229.194C567.296 226.208 567.694 223.221 568.689 220.633C570.481 214.661 575.458 210.878 581.033 208.888C584.417 207.892 588.399 207.295 593.376 207.295C594.228 207.295 595.226 207.441 596.37 207.608C596.562 207.636 596.759 207.665 596.959 207.693C598.353 207.892 599.547 208.091 600.543 208.29V179.423C599.846 179.324 599.099 179.175 598.353 179.025C597.606 178.876 596.86 178.727 596.163 178.627C594.769 178.428 593.376 178.428 592.38 178.428C561.722 178.428 537.434 196.345 537.434 229.393V278.964H567.296ZM660.864 206.1C675.995 206.1 682.565 214.661 683.36 229.194C683.36 244.125 675.995 252.287 660.864 252.287C650.91 252.287 641.952 248.505 638.965 238.153C637.97 235.565 637.572 232.578 637.572 229.393C637.572 219.837 640.956 212.073 650.114 207.892C653.1 206.698 656.684 206.1 660.864 206.1ZM691.325 278.964H721.185C715.61 266.223 713.42 252.287 713.42 238.352C713.42 234.768 713.42 231.782 713.225 229.194C712.425 198.734 692.52 178.428 660.864 178.428C631.201 178.428 607.71 197.341 607.71 228.796C607.71 256.07 628.016 279.96 656.485 279.96C669.226 279.96 679.58 274.983 686.345 263.834C687.54 269.01 689.335 273.987 691.325 278.964ZM811.37 275.978V246.116C803.605 250.297 790.665 251.889 781.905 251.889C775.335 251.889 767.175 250.496 762.795 245.12C760.805 243.13 759.41 240.741 758.615 237.954C757.62 235.365 757.22 232.379 757.22 229.194C757.22 223.62 758.615 217.647 762.795 213.466C767.375 208.29 775.335 206.897 781.905 206.897C791.66 206.897 802.61 208.091 811.37 212.67V182.808C801.22 179.423 790.665 178.428 780.115 178.428C750.055 178.428 727.36 197.739 727.36 229.393C727.36 259.853 749.255 280.358 780.115 280.358C790.665 280.358 801.22 279.363 811.37 275.978ZM884.235 210.48V182.808H856.365V155.534H826.5V229.194C826.5 259.454 849.995 279.96 880.055 279.96C882.64 279.96 884.635 279.96 885.825 279.761C886.098 279.707 886.401 279.637 886.733 279.561C887.616 279.359 888.706 279.109 890.01 278.964V251.292C889.312 251.392 888.665 251.491 888.018 251.591C887.37 251.69 886.722 251.79 886.025 251.889C884.635 252.088 883.04 252.287 881.25 252.287C866.515 252.287 856.365 244.523 856.365 229.194V210.48H884.235ZM952.72 206.1C967.85 206.1 974.42 214.661 975.215 229.194C975.215 244.125 967.85 252.287 952.72 252.287C942.765 252.287 933.805 248.505 930.82 238.153C929.825 235.565 929.425 232.578 929.425 229.393C929.425 219.837 932.81 212.073 941.97 207.892C944.955 206.698 948.54 206.1 952.72 206.1ZM983.18 278.964H1013.04C1007.46 266.223 1005.27 252.287 1005.27 238.352V238.349C1005.27 234.767 1005.27 231.781 1005.07 229.194C1004.28 198.734 984.375 178.428 952.72 178.428C923.055 178.428 899.565 197.341 899.565 228.796C899.565 256.07 919.87 279.96 948.34 279.96C961.08 279.96 971.435 274.983 978.2 263.834C979.395 269.01 981.19 273.987 983.18 278.964ZM1053.85 139.607H1023.99V278.964H1053.85V139.607Z" fill="#2539EF"/>
</svg>
